<?xml version="1.0" encoding="UTF-8"?>
<svg id="Layer_1" data-name="Layer 1" xmlns="http://www.w3.org/2000/svg" viewBox="0 0 612 276.07">
  <defs>
    <style>
      .cls-1 {
        fill: #00b49c;
      }

      .cls-2 {
        fill: #494951;
      }

      .cls-3 {
        fill: #f48b8d;
      }

      .cls-4 {
        opacity: .2;
        stroke: #fff;
        stroke-miterlimit: 10;
        stroke-width: 1.17px;
      }

      .cls-4, .cls-5 {
        fill: none;
      }

      .cls-6 {
        fill: #e9a4c9;
      }

      .cls-5 {
        stroke: #4893cf;
        stroke-linecap: round;
        stroke-linejoin: round;
        stroke-width: .69px;
      }

      .cls-7 {
        fill: #ffdf79;
      }

      .cls-8 {
        fill: #4893cf;
      }
    </style>
  </defs>
  <g>
    <path class="cls-1" d="M192.76,257.87c-.66-4.74,3.84-5.71,7.52-6.18-3.75-.26-11.44-1.4-11.8-5.94-.52-6.53,7.39-3.03,10.77-2.45-3.13-1.93-7.52-11.37-.46-11.22,4.04.09,10.19,6.06,11.8,9.36-2.44-5.67,3.58-6.85,6.91-3.23,2.57,2.79,4.1,5.77,5.64,9.29-.6-3.36,3.34-5.83,6.48-5.06,2.82.69,3.68,3.62,3.88,6.32.28,3.81-.88,7.72-.65,11.44.06,1.01.4,2.03.68,3.03l-.05-.38c.02.16.05.31.07.47.23.86.41,1.72.31,2.55l-.05-.39c.17,2.43-.35,4.36-3.33,6.04-3.23,1.81-7.62.89-11.14.69-3.87-.22-8.08.03-11.91-.62-4.7-.8-8.13-6.5-2.64-9-4.07.77-11.29.63-12.03-4.69Z"/>
    <path class="cls-2" d="M210.25,250.72c-.18.02-.36-.02-.55-.14-3.1-2-7.04-1.87-10.39-3.3-1.03-.44-.41-2.07.63-1.63,2.14.92,4.47,1.24,6.7,1.83-1.71-1.57-3.41-3.16-5.18-4.69-.84-.73.17-2.15,1.02-1.42,5.23,4.54,10.19,9.09,15.72,13.24-.34-1.21-1.24-2.98-1.52-3.66-.64-1.58-1.28-3.2-2.11-4.68-.55-.98,1.05-1.68,1.59-.71,1.06,1.89,1.85,3.97,2.63,5.98.42,1.08,1.47,3.08,1.21,4.4,2,1.44,4.23,3.02,6.19,4.79-.27-2.58.08-5.25-.28-7.82-.16-1.11,1.57-1.38,1.73-.26.48,3.42-.42,7.15.86,10.42.78.91,1.46,1.86,1.97,2.86.51,1-1.08,1.71-1.59.71-.27-.52-.59-1.03-.95-1.53-.06.03-.11.07-.18.09-2.2.56-4.38.35-6.62.44-2.63.11-5.26.55-7.88.76-1.11.09-1.38-1.64-.26-1.73,2.63-.21,5.25-.63,7.88-.76,1.97-.1,3.93.07,5.87-.28-2.03-2.26-4.78-4.31-7.4-6.13-.07.03-.14.07-.23.08-4.54.58-9.04-.53-13.58-.5-1.12,0-.92-1.73.19-1.73,3.81-.02,7.61.8,11.41.65-.71-.48-1.39-.95-2.01-1.39-1.7-1.21-3.31-2.52-4.88-3.88Z"/>
  </g>
  <g>
    <path class="cls-3" d="M585.15,41.09c3.22-2.33-.21-3.89-2.59-4.04-2.47-.16-5.21.51-7.58.11-.19-1.78,5.1-8.09,2.23-9.23-1.34-.54-4.05,1.8-4.88,2.63-1.19,1.17-1.68,3.37-3.13,4.18-1.43-1.5-3.04-9.17-6.51-7.57-1.94.9-1.48,8.48-.53,8.84l.35.18c-1.65,0-3.4.17-5.04,0-1.27-.13-4.05-1.07-5.04.08-2.24,2.62,4.95,7.22,6.31,8.45-.87,1.43-11.14,5.47-6.91,6.89,1.32.44,3.66-.03,4.97-.17,1.75-.18,3.88-1.67,5.51-1.4.32,3.42-2.19,6.78-2.57,10.27-.12,1.06.96,1.82,1.92,1.35,2.09-1.03,3.69-4.36,4.69-5.82,1.14-1.66,1.64-1.37,2.64.1.97,1.43,1.86,2.87,2.9,4.26.67.9,1.31,2.51,2.76,2.1,1.13-.32,1.46-2.3,1.54-3.32.12-1.6-1.28-5.51.26-6.5,1.59-1.02,5.46.93,7.12,1.01,3.65.17,1.66-2.88.49-4.56-.9-1.29-1.64-2.07-2.98-2.94-1.07-.7-2.71-1.06-1.84-2.37.96-1.44,4.45-1.48,5.9-2.53Z"/>
    <path class="cls-8" d="M573,41.67c-1.39-1.47-3.71-2.07-5.63-1.28-1.97.81-2.56,2.14-2.31,3.69-.09.4-.13.82-.11,1.23.17,3.2,4.1,4.89,6.74,3.35,2.19-1.28,3.17-5.03,1.31-7Z"/>
  </g>
  <path class="cls-8" d="M339.15,149.44l-1.25-2.93c-.2-.46-.85-.46-1.05,0l-1.22,2.87c-.06.14-.17.24-.3.3l-2.93,1.24c-.46.2-.46.85,0,1.05l2.87,1.22c.14.06.24.17.3.3l1.24,2.93c.2.46.85.46,1.05,0l1.22-2.87c.06-.14.17-.24.3-.3l2.93-1.25c.46-.2.46-.85,0-1.05l-2.87-1.22c-.14-.06-.24-.17-.3-.3Z"/>
  <path class="cls-8" d="M153.46,217.73l-.63-1.49c-.1-.23-.43-.23-.53,0l-.62,1.46c-.03.07-.08.12-.15.15l-1.49.63c-.24.1-.24.43,0,.53l1.46.62c.07.03.12.08.15.15l.63,1.49c.1.24.43.24.53,0l.62-1.46c.03-.07.08-.12.15-.15l1.49-.63c.23-.1.24-.43,0-.53l-1.46-.62c-.07-.03-.12-.08-.15-.15Z"/>
  <g>
    <path class="cls-7" d="M48.35,187.32c5.12-8.48,2.46-19.47-5.95-24.55-8.41-5.08-19.38-2.32-24.5,6.16-2.54,4.21-3.16,9.03-2.12,13.44.59,2.49.24,5.1-1.08,7.28l-.17.29c-2.73,4.52-1.28,10.39,3.24,13.11l.19.11c4.51,2.73,10.39,1.28,13.11-3.24l.02-.03c1.35-2.23,3.56-3.77,6.1-4.38,4.5-1.09,8.58-3.91,11.18-8.2Z"/>
    <line class="cls-4" x1="18.19" y1="194.47" x2="26.91" y2="170.8"/>
    <line class="cls-4" x1="23.16" y1="198.97" x2="41.72" y2="181.9"/>
    <path class="cls-8" d="M9.81,193.8h19.49v6.16c0,3.67-2.98,6.65-6.65,6.65h-5.54c-4.03,0-7.3-3.27-7.3-7.3v-5.51h0Z" transform="translate(106.32 18.72) rotate(31.13)"/>
    <path class="cls-5" d="M26.2,171.51c.44,1.62,1.79,2.92,3.52,2.61.66-.12,1.29-.56,1.55-1.18.26-.62.01-1.46-.61-1.7-.63-.25-1.38.18-1.66.79-.29.61-.21,1.34,0,1.98.74,2.3,3.16,3.94,5.57,3.78,1.05-.07,2.3-.8,2.08-1.83-.22-1.04-1.92-1.09-2.52-.2-.6.89-.32,2.11.24,3.02.72,1.16,1.96,2.08,3.33,2.07,1.37,0,3.68-1.64,2.65-2.54-1.01-.88-2.84,1.54-2.33,2.78.51,1.24,2.86,1.82,3.87.93"/>
    <path class="cls-7" d="M13.19,191.65c-.14-.17-.16-.42-.03-.63.16-.26.5-.34.75-.19.08.05,8.05,4.84,16.53,9.77.26.15.34.48.18.74-.16.26-.5.35-.75.2-8.49-4.94-16.47-9.73-16.55-9.78-.05-.03-.1-.07-.14-.12Z"/>
    <path class="cls-7" d="M11.9,193.82c-.14-.17-.16-.42-.03-.63.16-.26.5-.34.75-.19.08.05,8.05,4.84,16.53,9.77.26.15.34.48.18.74-.16.26-.5.35-.75.2-8.49-4.94-16.47-9.73-16.55-9.78-.05-.03-.1-.07-.14-.12Z"/>
    <path class="cls-7" d="M10.77,195.83c-.14-.17-.16-.42-.03-.63.16-.26.5-.34.75-.19.08.05,8.05,4.84,16.53,9.77.26.15.34.48.18.74-.16.26-.5.35-.75.2-8.49-4.94-16.47-9.73-16.55-9.78-.05-.03-.1-.07-.14-.12Z"/>
    <path class="cls-7" d="M10.05,198.05c-.14-.17-.16-.42-.03-.63.16-.26.5-.34.75-.19.08.05,6.99,4.43,15.47,9.37.26.15.34.48.18.74-.16.26-.5.35-.75.2-8.49-4.94-15.4-9.32-15.48-9.37-.05-.03-.1-.07-.14-.12Z"/>
  </g>
  <g>
    <path class="cls-3" d="M429.36,157.07s-4.08.59-5.49-2.15c-1.41-2.75-1.92-5.63-1.24-6.25.68-.62,6.82-.94,8.18.08,1.36,1.03,1.65,3.11,1.65,3.11,0,0-2.02,3.29-3.1,5.2Z"/>
    <path class="cls-3" d="M435.77,147.91s-4.46-.23-5.01-2.66c-.56-2.43-.32-5.7.2-6.73.52-1.03,4.79.18,6.73.76,1.93.58,2.07,5.74,2.07,5.74,0,0-2.23,1-3.99,2.88Z"/>
    <path class="cls-3" d="M443.94,143.38s-3.11-4.13-2.93-5.17c.17-1.03,2.8-5.38,3.82-6.19,1.02-.81,5.2,3.04,5.82,4.31.63,1.27-1.15,6.56-1.41,6.81,0,0-2.83-.6-5.3.23Z"/>
    <path class="cls-3" d="M454.5,144.69s-1.25-4.68-.98-6.29c.27-1.6,4.09-3.84,5.91-3.67,1.82.17,3.01,4.86,3.06,6.18.05,1.32-4.74,5.66-4.74,5.66l-3.25-1.88Z"/>
    <path class="cls-3" d="M462.72,149.62s.49-3.86,1.03-4.46c.55-.61,3.76-1.05,4.53-.76.77.29.98,3.37.54,4.44-.44,1.07-3.85,2.1-3.85,2.1l-2.25-1.32Z"/>
    <path class="cls-7" d="M438.66,167.61s3.7,5.06,4.34,7.71c.64,2.65,4.07,2.15,5.68,1.68,1.61-.47,3.17-.93,3.12-2.45-.05-1.52-1.84-7.23-1.44-9.66"/>
    <path class="cls-7" d="M458.78,162.34s3.7,5.06,4.34,7.71c.64,2.65,4.07,2.15,5.68,1.68,1.61-.47,3.17-.93,3.12-2.45-.05-1.52-1.84-7.23-1.44-9.66"/>
    <path class="cls-3" d="M435.51,172.15c.65-.16,1.01-.29,1.01-.29,2.85-1.03,6.26-1.55,10.04-2.02.18-.87.41-1.73.66-2.59-4.16,1.11-8.11,2.64-11.71,4.9Z"/>
    <path class="cls-3" d="M449.76,166.64c-.22.96-.43,1.93-.62,2.89.93-.11,1.89-.23,2.86-.36.2-1.06.43-2.09.67-3.12-.98.18-1.95.37-2.91.59Z"/>
    <path class="cls-3" d="M452.67,166.05c-.24,1.03-.47,2.06-.67,3.12.77-.1,1.55-.21,2.34-.32.15-1.06.34-2.12.54-3.18-.74.12-1.48.24-2.21.38Z"/>
    <path class="cls-3" d="M454.88,165.68c-.21,1.06-.39,2.11-.54,3.18,3.19-.46,6.52-1.07,9.92-2.05.41-.12.8-.24,1.17-.36.1-.71.21-1.42.32-2.12-3.63.38-7.29.78-10.87,1.35Z"/>
    <path class="cls-3" d="M465.75,164.33c-.11.7-.22,1.41-.32,2.12.76-.25,1.46-.51,2.12-.77.03-.52.05-1.03.08-1.55-.63.07-1.26.13-1.89.2Z"/>
    <path class="cls-3" d="M467.64,164.13c-.03.51-.06,1.03-.08,1.55,1.47-.6,2.71-1.25,3.74-1.94-1.21.14-2.44.27-3.66.4Z"/>
    <path class="cls-3" d="M447.22,167.26c-.25.86-.48,1.71-.66,2.59.84-.1,1.71-.21,2.59-.31.19-.96.4-1.92.62-2.89-.86.19-1.71.39-2.55.62Z"/>
    <path class="cls-7" d="M477.13,133.58c-3.95,1.03-7.31,3.82-6.83,9.04.47,5.22,4.03,7.45-.15,9.63-4.18,2.18-15.58-11.55-25.78-8.98-10.2,2.57-12.95,10.61-16.75,16.84-3.81,6.24-14.35,2.96-16.57,2.06-2.21-.9-4.23,3.48,6.38,8.12,8.45,3.7,15.55,2.5,18.09,1.86,10.24-6.42,23.4-7.02,35.8-8.42,4.35-2.9,5.22-6.44,6.26-9.31,1.46-4.01,1.23-3.88,2.19-4.46.97-.58,7.86.32,8.5-7.83.64-8.14-7.19-9.59-11.14-8.56Z"/>
    <path class="cls-7" d="M434.14,169.98s3.7,5.06,4.34,7.71c.64,2.65,4.07,2.15,5.68,1.68,1.61-.47,3.17-.93,3.12-2.45-.05-1.52-1.84-7.23-1.44-9.66"/>
    <path class="cls-7" d="M454.26,164.71s3.7,5.06,4.34,7.71c.64,2.65,4.07,2.15,5.68,1.68,1.61-.47,3.17-.93,3.12-2.45s-1.84-7.23-1.44-9.66"/>
    <path class="cls-3" d="M444.48,147.31c.16.61-.88,1.42-2.33,1.8-1.45.38-2.75.19-2.91-.43-.16-.61.88-1.42,2.33-1.8,1.45-.38,2.75-.19,2.91.43Z"/>
    <path class="cls-3" d="M452.72,146.34c.16.61-.88,1.42-2.33,1.8-1.45.38-2.75.19-2.91-.43-.16-.61.88-1.42,2.33-1.8,1.45-.38,2.75-.19,2.91.43Z"/>
    <path class="cls-3" d="M440.11,152.25c.11.43-.61.98-1.61,1.25-1,.26-1.91.13-2.02-.3-.11-.43.61-.98,1.61-1.25,1-.26,1.91-.13,2.02.3Z"/>
    <path class="cls-3" d="M443.45,154.06c.11.43-.45.94-1.26,1.15-.81.21-1.56.04-1.67-.39-.11-.43.46-.94,1.27-1.15.81-.21,1.56-.04,1.67.39Z"/>
    <path class="cls-3" d="M446.56,150.56c.11.43-.46.94-1.27,1.15-.81.21-1.56.04-1.67-.39s.46-.94,1.26-1.15c.81-.21,1.56-.04,1.67.39Z"/>
    <path class="cls-3" d="M453.53,149.48c.14.54-.65,1.22-1.78,1.52-1.12.29-2.15.09-2.29-.45s.65-1.22,1.78-1.52c1.12-.29,2.15-.09,2.29.45Z"/>
    <path class="cls-6" d="M484.56,145.55c0,1.05-.85,1.89-1.89,1.89s-1.89-.85-1.89-1.89.85-1.89,1.89-1.89,1.89.85,1.89,1.89Z"/>
    <circle class="cls-2" cx="484.8" cy="142.92" r=".74"/>
  </g>
  <g>
    <circle class="cls-3" cx="49.89" cy="30.98" r="24.67" transform="translate(-7.57 18.84) rotate(-19.91)"/>
    <g>
      <path class="cls-7" d="M54.23,25.21c-.48.98-1.98,1.16-2.96.67s-1.39-1.67-.9-2.65c.48-.98,1.67-1.39,2.65-.9.98.48,1.69,1.9,1.21,2.88Z"/>
      <path class="cls-7" d="M59,39.89c-.48.98-1.67,1.39-2.65.9s-1.39-1.67-.9-2.65c.48-.98,1.67-1.39,2.65-.9.98.48,1.39,1.67.9,2.65Z"/>
      <path class="cls-7" d="M41.65,50.15c-.48.98-1.67,1.39-2.65.9s-1.39-1.67-.9-2.65,1.67-1.39,2.65-.9,1.39,1.67.9,2.65Z"/>
      <path class="cls-7" d="M34.87,29.3c-.29.59-1.01.84-1.6.55s-.84-1.01-.55-1.6,1.17-1.17,1.77-.88c.59.29.67,1.34.38,1.94Z"/>
      <path class="cls-7" d="M68.24,17.67c-.24.48-.82.68-1.31.44-.48-.24-.68-.82-.44-1.31.24-.48.82-.68,1.31-.44.48.24.68.82.44,1.31Z"/>
      <path class="cls-7" d="M70.18,35.27c-.35.71-1.21,1-1.92.65-.71-.35-1-1.21-.65-1.92s1.21-1,1.92-.65,1,1.21.65,1.92Z"/>
      <path class="cls-7" d="M34.26,25.65c-.8.75-2.29.3-3.04-.5s-.71-2.05.09-2.8c.8-.75,2.05-.71,2.8.09.75.8.95,2.46.16,3.21Z"/>
      <path class="cls-7" d="M50.09,30.15c-.56.53-1.44.5-1.97-.06-.53-.56-.6-1.59-.04-2.12s1.55-.35,2.07.21c.53.56.5,1.44-.06,1.97Z"/>
      <path class="cls-7" d="M38.04,38.15c-.56.53-1.44.5-1.97-.06-.53-.56-.6-1.59-.04-2.12.56-.53,1.55-.35,2.07.21.53.56.5,1.44-.06,1.97Z"/>
      <path class="cls-7" d="M59.65,52.34c-.8.75-2.05.71-2.8-.09s-.71-2.05.09-2.8c.8-.75,2.05-.71,2.8.09.75.8.71,2.05-.09,2.8Z"/>
      <path class="cls-7" d="M45.38,49.17c-.48.45-1.23.43-1.67-.05-.45-.48-.43-1.23.05-1.67.48-.45,1.23-.43,1.67.05.45.48.43,1.23-.05,1.67Z"/>
      <path class="cls-7" d="M44.98,13.97c-.8.75-2.05.71-2.8-.09s-.71-2.05.09-2.8c.8-.75,2.05-.71,2.8.09.75.8.71,2.05-.09,2.8Z"/>
    </g>
  </g>
  <g>
    <g>
      <path class="cls-3" d="M564.98,244.62c-11.05-4.78-17.7-16.62-15.59-28.85,2.44-1.4,5.49-2.43,9.24-2.52,0,0-9.36,15.07,6.35,31.36Z"/>
      <path class="cls-8" d="M560.06,211.36c-.49.61-.97,1.23-1.43,1.9-3.75.09-6.8,1.12-9.24,2.52.06-.32.11-.64.18-.97,1.11-5.3,3.74-9.89,7.33-13.42.3,3.39,1.14,7.15,3.16,9.97Z"/>
      <path class="cls-3" d="M560.06,211.36c-2.02-2.83-2.87-6.59-3.16-9.97,6.12-6.03,15.06-8.98,24.1-7.08,4.82,1.02,9.06,3.29,12.45,6.39-9.74-1.91-23.51-1.65-33.38,10.66Z"/>
      <path class="cls-8" d="M564.98,244.62c-15.71-16.29-6.35-31.36-6.35-31.36,0,0,7.54,17.83,29.93,30.12-5.42,3.06-11.92,4.24-18.49,2.86-1.78-.37-3.48-.92-5.09-1.62Z"/>
      <path class="cls-8" d="M560.39,211.81c-.11-.15-.22-.3-.33-.45,9.87-12.31,23.64-12.58,33.38-10.66,6.25,5.73,9.6,14.33,8.36,23.21-28.3-1.87-41.42-12.1-41.42-12.1Z"/>
      <path class="cls-3" d="M558.63,213.26c.47-.67.95-1.29,1.43-1.9.11.15.21.3.33.45,0,0,13.12,10.23,41.42,12.1-.08.61-.18,1.22-.31,1.83-1.64,7.77-6.52,14.02-12.94,17.64-22.38-12.29-29.93-30.12-29.93-30.12Z"/>
    </g>
    <path class="cls-7" d="M555.61,223.7c3.71,1.57,8.59-1.56,10.89-6.99,2.3-5.43,1.16-11.11-2.55-12.69-3.71-1.57-8.59,1.56-10.89,6.99-2.3,5.43-1.16,11.11,2.55,12.69Z"/>
  </g>
  <path class="cls-1" d="M178.21,89.15c0-.93.39-1.83,1.11-2.44.39-.34.9-.54,1.43-.51.14.02.29.05.43.08-.06-.01-.13-.03-.26-.05.29-.06.52.07.71.25,0-.02,0-.01.06.02.62.36.91,1.07.9,1.75,0,1.02-.35,1.75-1.05,2.47-1.28,1.33-3.33.04-3.34-1.57ZM188.09,92.95c.49-1.18.72-1.97.22-3.17-.22-.53-.88-.62-1.34-.43-1.22.5-1.56,1.43-2.04,2.59-.82,1.97,2.35,2.98,3.16,1.02ZM182.67,102.74c.29-.54.68-.92.77-1.56.06-.49-.1-.83-.23-1.29-.06-.21-.21-.45-.45-.5-.72-.14-1.34-.13-1.92.4-.75.68-.69,1.57-.59,2.5.13,1.13,1.89,1.43,2.42.44ZM193.55,103.38c.56-.78.96-1.69,1.4-2.54.53-1.01-.74-2.32-1.64-1.37-.73.78-1.52,1.53-2.14,2.4-1.05,1.48,1.33,2.99,2.38,1.52ZM193.16,96.41c.07-.66.14-1.33.21-1.99.1-.97-1.3-1.15-1.62-.3-.23.63-.47,1.27-.7,1.9-.52,1.42,1.93,2,2.1.39ZM166.22,91.01c.68-.88.75-1.85.94-2.93.17-.96-1.42-1.47-1.83-.59-.47,1-.98,1.81-.94,2.93.04,1.02,1.21,1.39,1.83.59ZM174.09,87.41l.57-1.17c.64-1.33-1.31-2.59-1.96-1.25l-.57,1.17c-.64,1.33,1.31,2.59,1.96,1.25ZM173.16,99.14c.26-1.27.52-2.53.78-3.8.22-1.09-1.35-2.1-1.94-.91-.56,1.13-1.12,2.25-1.68,3.38-1.08,2.18,2.4,3.42,2.83,1.33ZM173.34,111.35c.25-.76.49-1.51.74-2.27.37-1.12-1.39-2.04-1.94-.91l-1.04,2.13c-.79,1.63,1.68,2.74,2.23,1.05ZM181.05,114.37c.66-.85.75-1.91.97-2.93.38-1.84-2.3-2.8-2.84-.91-.33,1.14-.76,2.2-.54,3.41.22,1.23,1.75,1.3,2.42.44ZM187.69,110.32c.67-.71,1.15-1.46,1.53-2.36.71-1.67-1.98-2.52-2.69-.86-.18.43-.43.81-.75,1.15-1.23,1.31.67,3.4,1.91,2.08ZM179.58,97.74c.17-.65.35-1.3.52-1.95.43-1.6-1.96-2.09-2.27-.42-.12.66-.24,1.32-.36,1.98-.22,1.2,1.79,1.56,2.1.39ZM198.04,114.85c.34-1.24.69-2.48,1.03-3.72.37-1.33-1.68-2-2.05-.66-.34,1.24-.69,2.48-1.03,3.72-.37,1.33,1.68,2,2.05.66ZM199.09,105.45c.22-.46.44-.92.66-1.37.5-1.05-.8-1.92-1.54-.98-.31.4-.63.8-.94,1.2-.87,1.1,1.22,2.41,1.82,1.16ZM198.15,98.88l.32-1.63c.23-1.14-1.51-1.71-1.74-.56l-.32,1.63c-.23,1.14,1.51,1.71,1.74.56ZM191.53,114.58c.36-.65.73-1.29,1.09-1.94.74-1.32-1.34-2.57-1.96-1.25-.32.68-.63,1.35-.95,2.03-.57,1.21,1.12,2.4,1.82,1.16ZM187.97,101.59c.16-.4.33-.8.49-1.19.25-.61-.72-1.06-1.04-.49-.21.37-.42.75-.64,1.12-.47.82.82,1.46,1.19.56ZM156.34,88.65c.72-.91.73-1.97.49-3.07-.27-1.25-2.31-1.17-2.3.17,0,.74-.23,1.48-.33,2.21-.19,1.28,1.5,1.49,2.14.69ZM163.39,81.54l.34-1.05c.42-1.32-1.63-1.98-2.05-.66l-.34,1.05c-.42,1.32,1.63,1.98,2.05.66ZM170.81,82.44c.35-.62.32-.97.22-1.67-.07-.49-.76-.71-1.1-.35-.48.51-.72.78-.8,1.49-.1.9,1.24,1.33,1.68.54ZM179.37,83.79c.2-.71.4-1.42.59-2.12.32-1.13-1.34-1.66-1.74-.56l-.75,2.07c-.44,1.21,1.55,1.85,1.9.61ZM186.97,87c.11-.54.22-1.09.33-1.63.29-1.45-1.91-2.17-2.21-.71-.11.54-.22,1.09-.33,1.63-.29,1.45,1.91,2.18,2.21.71ZM164.06,103.08c.25-.49.5-.98.75-1.47.81-1.59-1.58-2.73-2.23-1.05-.2.51-.4,1.03-.6,1.54-.47,1.21,1.48,2.16,2.09.98ZM167.54,95.79l.64-1.72c.37-1-1.3-1.54-1.58-.51-.16.59-.32,1.18-.48,1.77-.25.93,1.09,1.36,1.42.46ZM157.97,98.5c.33-.73.65-1.46.98-2.19.52-1.15-1.45-1.83-1.9-.61l-.82,2.24c-.41,1.12,1.27,1.6,1.74.56ZM161.55,89.43l.22-.7c.39-1.22-1.5-1.83-1.9-.61l-.22.7c-.39,1.22,1.5,1.83,1.9.61ZM147.86,94.67c.24-1.01.49-2.03.73-3.04.37-1.55-1.99-2.32-2.37-.76-.24,1.01-.49,2.03-.73,3.04-.37,1.55,1.99,2.32,2.37.76ZM150.8,87.09l.21-1.86c.13-1.17-1.69-1.26-1.82-.1l-.21,1.86c-.13,1.17,1.69,1.26,1.82.1ZM151.77,100.31l.43-2.56c.2-1.16-1.63-1.24-1.82-.1l-.43,2.56c-.2,1.16,1.63,1.24,1.82.1ZM165.96,109.36c.19-.58.37-1.17.56-1.75.39-1.22-1.5-1.83-1.9-.61l-.56,1.75c-.39,1.22,1.5,1.83,1.9.61ZM171.43,106.68c.14-.66.31-1.45.62-2.05.5-.95-.65-2.09-1.51-1.27-.87.83-1.35,1.68-1.37,2.9-.02,1.25,1.99,1.77,2.27.42ZM177.15,107.75c.29-.81.57-1.62.86-2.42.5-1.41-1.8-2.15-2.21-.71-.23.82-.47,1.65-.7,2.47-.38,1.34,1.59,1.97,2.05.66ZM173.55,122.2c.33-.78.51-1.64.75-2.46.56-1.97-2.64-2.55-2.75-.51-.05.85-.15,1.73-.1,2.58.07,1.22,1.62,1.56,2.1.39ZM187.64,125l.34-1.05c.49-1.53-1.88-2.29-2.37-.76l-.34,1.05c-.49,1.53,1.88,2.29,2.37.76ZM181.51,123.34c.14-.73.27-1.47.41-2.2.25-1.33-2-1.52-2.15-.12-.08.74-.16,1.48-.24,2.21-.14,1.31,1.76,1.33,1.99.11ZM187.71,117.72c.02-.19.05-.38.07-.58.24-1.95-3.14-1.91-2.79.21.03.19.06.38.09.56.26,1.55,2.45,1.23,2.62-.2ZM195.46,128.68l.22-1.28c.3-1.79-2.52-1.92-2.82-.15l-.22,1.28c-.3,1.79,2.52,1.92,2.82.15ZM194.29,121.54l.22-.7c.33-1.02-1.25-1.53-1.58-.51l-.22.7c-.33,1.02,1.25,1.53,1.58.51ZM201.18,122.89c-.68-1.33-2.75-.27-2.06,1.06.68,1.33,2.75.27,2.06-1.06ZM203.42,108.31c-.44-.85-1.77-.17-1.33.68.44.85,1.77.17,1.33-.68ZM204.39,117.85l.22-.7c.49-1.53-1.88-2.29-2.37-.76l-.22.7c-.49,1.53,1.88,2.29,2.37.76ZM200.51,117.18l.56-1.75c.33-1.02-1.25-1.53-1.58-.51l-.56,1.75c-.33,1.02,1.25,1.53,1.58.51ZM175.82,140.81c.24-1.47.49-2.94.73-4.41.21-1.25-1.83-1.39-1.99-.11-.19,1.47-.37,2.95-.56,4.42-.15,1.18,1.63,1.23,1.82.1ZM167.19,129.84c-.73-1.42-2.95-.29-2.21,1.14.73,1.42,2.95.29,2.21-1.14ZM163.37,120.89c.12-.81.24-1.62.36-2.43.28-1.88-2.96-2.11-2.98-.16-.01.82-.02,1.63-.03,2.45-.02,1.74,2.4,1.81,2.65.14ZM170.85,133.48c.27-1.26.54-2.53.81-3.79.37-1.75-2.2-2.24-2.43-.45-.16,1.28-.32,2.57-.49,3.85-.15,1.2,1.85,1.59,2.1.39ZM160.67,135.66c.06-.7.11-1.39.17-2.09.14-1.71-2.65-1.85-2.65-.14,0,.7,0,1.4,0,2.1,0,1.6,2.35,1.74,2.48.14ZM168.31,122.91l.11-.93c.17-1.49-2.15-1.61-2.32-.13l-.11.93c-.17,1.49,2.15,1.61,2.32.13ZM152.66,120.7c.15-.79.29-1.58.44-2.36.39-2.09-2.79-2.45-2.75-.51.01.82.03,1.64.04,2.45.02,1.22,2.01,1.8,2.27.42ZM158.96,111.58c-.73-1.42-2.95-.29-2.21,1.14.73,1.42,2.95.29,2.21-1.14ZM169.61,118.43c.53-1.52.76-3.1.67-4.72-.08-1.48-2.4-1.62-2.32-.13.08,1.43-.1,2.78-.56,4.13-.49,1.41,1.72,2.12,2.21.71ZM154.1,110.51c-.03-.58-.07-1.16-.1-1.75-.06-1.04-1.62-1.18-1.66-.09-.02.58-.04,1.16-.06,1.74-.04,1.2,1.89,1.25,1.82.1ZM158.4,107.51c.27-1.01.54-2.01.8-3.02.27-1.03-1.3-1.54-1.58-.51-.27,1.01-.54,2.01-.8,3.02-.27,1.03,1.3,1.54,1.58.51ZM145.27,114.28c.2-.64.4-1.29.6-1.93.56-1.8-2.32-2.42-2.59-.48-.09.66-.18,1.33-.28,1.99-.18,1.32,1.88,1.66,2.27.42ZM148.29,109.11c.86-1.14,1.04-2.61.98-4.01-.05-1.15-1.81-1.29-1.82-.1-.02,1.19-.39,2.26-.64,3.41-.21.92.91,1.47,1.49.7ZM141.91,104.91c.33-.92.65-1.85.98-2.77.53-1.51-1.92-2.3-2.37-.76-.27.94-.54,1.88-.82,2.82-.42,1.44,1.71,2.12,2.21.71ZM141.19,98.15c.24-.36.47-.72.71-1.08.78-1.19-1.32-2.24-1.79-.84-.14.41-.27.81-.41,1.22-.3.9.98,1.48,1.49.7ZM146.02,102.25c.36-.65.73-1.29,1.09-1.94.75-1.34-1.27-2.34-1.94-.91-.31.67-.63,1.34-.94,2.01-.48,1.02,1.24,1.82,1.79.84ZM142.33,91.94l.45-.82c.46-.83-.79-1.64-1.26-.8l-.45.82c-.46.84.79,1.64,1.26.8ZM132.83,106.62c.39-1.23.77-2.45,1.16-3.68.36-1.13-1.48-1.69-1.74-.56-.28,1.26-.56,2.52-.84,3.78-.21.92,1.13,1.39,1.42.46ZM135.48,99.57c.15-.66.29-1.32.44-1.98.16-.72-.94-1.09-1.11-.36-.15.66-.3,1.32-.44,1.98-.16.72.94,1.09,1.11.36ZM136.44,111.25c.42-1,.64-2.03.67-3.11.03-1.18-1.85-1.26-1.82-.1.03.94-.11,1.82-.43,2.7-.37,1.02,1.17,1.47,1.58.51ZM130.39,116.05c.45-1.38.67-2.8.64-4.25-.02-1.08-1.72-1.14-1.66-.09.08,1.33-.04,2.61-.41,3.89-.26.92,1.12,1.37,1.42.46ZM140.08,120.9l.33-1.63c.25-1.24-1.64-1.86-1.9-.61l-.33,1.63c-.25,1.24,1.64,1.86,1.9.61ZM133.56,124.19c.02-1.67.03-3.33.05-5,0-.96-1.45-1.05-1.49-.08-.07,1.66-.14,3.32-.22,4.99-.05,1.07,1.65,1.16,1.66.09ZM140.97,112.13c.06-.3.12-.6.18-.9.27-1.33-1.75-1.62-1.78-.33,0,.31-.01.62-.02.93-.02.9,1.42,1.26,1.62.3ZM144.84,127.43c.16-.93.32-1.85.48-2.78.2-1.13-1.76-1.3-1.82-.1-.05.93-.1,1.87-.15,2.8-.05.99,1.33,1,1.49.08ZM139.29,135.63l.31-3.37c.11-1.17-1.72-1.27-1.82-.1-.1,1.12-.21,2.25-.31,3.37-.11,1.17,1.72,1.27,1.82.1ZM135.26,132.64l-.28-3.94c-.07-.95-1.56-1.04-1.49-.08l.28,3.94c.07.95,1.56,1.04,1.49.08ZM140.28,125.55c-.49-.95-1.96-.19-1.47.76.49.95,1.96.19,1.47-.76ZM147.5,119.4l.1-1.51c.07-1.07-1.59-1.16-1.66-.09l-.1,1.51c-.07,1.07,1.59,1.16,1.66.09ZM150.23,131.83c-.49-.95-1.96-.19-1.47.76.49.95,1.96.19,1.47-.76ZM156.47,123.46c.28-1.26.56-2.52.84-3.78.18-.82-1-1.23-1.26-.41-.39,1.23-.77,2.45-1.16,3.68-.33,1.03,1.35,1.54,1.58.51ZM155.17,130.18c.52-1.14.8-2.32.86-3.57.04-.86-1.25-.92-1.33-.07-.1,1.07-.38,2.06-.87,3.01-.49.95.89,1.62,1.34.63ZM150.05,128.89c.14-1.43.28-2.87.41-4.3.1-1.07-1.55-1.15-1.66-.09l-.41,4.3c-.1,1.07,1.55,1.15,1.66.09ZM160.46,128.99c.36-1.01.53-2.05.5-3.12-.03-.95-1.46-1.05-1.49-.08-.03.95-.22,1.82-.59,2.7-.41.97,1.21,1.52,1.58.51ZM152.78,142.23c-.02-.92.06-1.81.3-2.7.46-1.72-2.15-2.25-2.43-.45-.17,1.11-.16,2.2,0,3.31.16,1.2,2.16,1.06,2.13-.16ZM146.12,136.72c.3-1.19.42-2.38.33-3.6-.09-1.16-1.91-1.27-1.82-.1.08,1.07.01,2.1-.24,3.14-.28,1.13,1.45,1.7,1.74.56ZM142.44,134.38c.27-1.26.15-2.42-.42-3.59-.42-.87-1.75-.18-1.33.68.38.78.5,1.59.32,2.45-.2.93,1.22,1.4,1.42.46ZM141.31,143.72c-.33-1.1-.48-2.19-.45-3.34.03-1.17-1.74-1.27-1.82-.1-.09,1.3.02,2.58.33,3.85.31,1.25,2.31.81,1.95-.41ZM146.2,147.03c-.09-1.12-.17-2.24-.26-3.37-.1-1.27-2.05-.85-1.95.41.09,1.12.17,2.24.26,3.37.1,1.28,2.05.85,1.95-.41ZM147.76,143.07l.09-2.09c.03-.75-1.13-.81-1.16-.06l-.09,2.09c-.03.75,1.13.81,1.16.06ZM151.1,152.87c-.34-1.02-.47-2.02-.38-3.1.07-.85-1.3-.93-1.33-.07-.04,1.24.17,2.4.62,3.55.24.6,1.29.24,1.08-.38ZM157.13,145.65c.09-1.01.19-2.01.28-3.02.1-1.06-1.62-1.16-1.66-.09-.04,1.01-.08,2.02-.11,3.03-.04.96,1.4,1.04,1.49.08ZM156.33,136.72c.33-1.24.37-2.46.05-3.7-.26-1.03-1.83-.71-1.62.34.19.97.14,1.87-.16,2.81-.36,1.12,1.43,1.69,1.74.56ZM166.83,144.87c-.13-1.01-.1-2.01.09-3.01.28-1.41-1.79-1.79-1.94-.36-.13,1.25-.05,2.48.22,3.71.24,1.06,1.76.71,1.62-.34ZM177.32,129.4c.07-.81.14-1.63.21-2.44.07-.85-1.25-.92-1.33-.07-.07.81-.14,1.63-.21,2.44-.07.85,1.25.92,1.33.07ZM183,131.34c.06-.7.12-1.39.17-2.09.12-1.39-2.15-1.5-2.15-.12v2.1c-.01,1.28,1.87,1.39,1.98.11ZM187.52,135.92c.04-1.2.07-2.4.11-3.61.03-.96-1.42-1.04-1.49-.08-.09,1.2-.18,2.4-.27,3.6-.08,1.07,1.62,1.16,1.66.09ZM199.27,133.75l.56-1.75c.26-.81-1-1.22-1.26-.41l-.56,1.75c-.26.81,1,1.22,1.26.41ZM202.66,129.63c.27-.94.53-1.88.8-2.83.17-.62-.74-.91-.95-.3-.32.93-.64,1.85-.96,2.78-.24.71.9,1.07,1.11.36ZM192.42,141.28c.72-1.19,1.1-2.5,1.08-3.89-.03-1.38-2.18-1.51-2.15-.12.02,1.04-.2,1.96-.74,2.85-.72,1.18,1.1,2.35,1.82,1.16ZM187.89,144.55c.36-1.02.41-2.08.13-3.13-.42-1.55-2.65-1.08-2.44.51.07.49,0,.98-.23,1.43-.93,1.82,1.85,3.11,2.53,1.19ZM181.27,146.27l.75-3.61c.28-1.35-1.77-2.02-2.05-.66l-.75,3.61c-.28,1.35,1.77,2.02,2.05.66ZM170.45,152.4c.56-.84.58-2.02.76-2.99.17-.93-1.25-1.4-1.42-.46-.19,1.04-.63,2.21-.4,3.26.11.5.78.61,1.06.19ZM176.04,149.88l.35-2.2c.24-1.48-2.09-1.59-2.32-.13-.12.73-.24,1.47-.35,2.2-.24,1.48,2.09,1.59,2.32.13ZM171.76,140.86l.08-2.67c.04-1.17-1.79-1.27-1.82-.1l-.08,2.67c-.04,1.17,1.78,1.27,1.82.1ZM162.44,148.17c-.16-.8-.15-1.55.05-2.34.24-.98-1.05-1.67-1.64-.77-.67,1.03-1.03,2.11-1.2,3.32-.27,1.95,3.21,1.9,2.79-.21ZM165.07,153.45c.47-.86.27-1.86.39-2.81.09-.72-1.05-1.11-1.38-.44-.5,1.01-1.05,2.07-.6,3.18.26.63,1.26.65,1.58.07ZM164.74,138.07l.75-3.42c.27-1.23-1.56-1.86-1.9-.61-.3,1.12-.61,2.24-.91,3.37-.37,1.35,1.76,2,2.05.66ZM157.63,152.67c-.09-.56-.17-1.13-.26-1.69-.18-1.18-1.82-.91-1.97.15-.08.58-.16,1.15-.24,1.73-.23,1.69,2.75,1.71,2.46-.19ZM174.49,152.95c-.45-1.16-2.25-.45-2.01.71.15.74-.19,1.37-.04,2.1.18.82,1.17,1.12,1.79.57.97-.86.68-2.3.26-3.38ZM182.47,152.36c-.02-.62-.03-1.25-.05-1.87-.02-.88-1.38-1.27-1.62-.3-.15.59-.29,1.19-.44,1.79-.39,1.59,2.14,1.88,2.1.39ZM191.37,146.21l.22-1.28c.18-1.05-1.48-1.13-1.66-.09l-.22,1.28c-.18,1.05,1.48,1.13,1.66.09Z"/>
</svg>